<svg width="42" height="23" viewBox="0 0 42 23" fill="none" xmlns="http://www.w3.org/2000/svg">
<path d="M10.744 22.64C8.67467 22.64 6.82933 22.1493 5.208 21.168C3.608 20.1867 2.37067 18.8427 1.496 17.136C0.621333 15.4293 0.184 13.5307 0.184 11.44C0.184 9.34933 0.621333 7.45067 1.496 5.744C2.37067 4.03733 3.608 2.69333 5.208 1.712C6.82933 0.730666 8.67467 0.24 10.744 0.24C12.8133 0.24 14.648 0.730666 16.248 1.712C17.848 2.69333 19.0853 4.03733 19.96 5.744C20.8347 7.45067 21.272 9.34933 21.272 11.44C21.272 13.5307 20.8347 15.4293 19.96 17.136C19.0853 18.8427 17.848 20.1867 16.248 21.168C14.648 22.1493 12.8133 22.64 10.744 22.64ZM10.744 21.2C12.6853 21.2 14.1893 20.3573 15.256 18.672C16.3227 16.9653 16.856 14.5547 16.856 11.44C16.856 8.32533 16.3227 5.92533 15.256 4.24C14.1893 2.53333 12.6853 1.68 10.744 1.68C8.80267 1.68 7.29867 2.53333 6.232 4.24C5.18667 5.92533 4.664 8.32533 4.664 11.44C4.664 14.5547 5.18667 16.9653 6.232 18.672C7.29867 20.3573 8.80267 21.2 10.744 21.2ZM25.3213 5.04C25.3213 3.952 25.1719 3.152 24.8733 2.64C24.5746 2.10667 23.9773 1.84 23.0813 1.84H22.7613V0.879999H31.4013C34.0893 0.879999 36.3293 1.25333 38.1213 2C39.9346 2.74667 40.8413 4.24 40.8413 6.48C40.8413 7.46133 40.4466 8.38933 39.6573 9.264C38.8893 10.1173 37.8013 10.7253 36.3933 11.088C39.9986 11.4507 41.8013 13.136 41.8013 16.144C41.8013 18.3627 40.9159 19.8987 39.1453 20.752C37.3746 21.584 35.1133 22 32.3613 22H25.3213V5.04ZM31.8813 10.448C33.2679 10.448 34.3559 10.128 35.1453 9.488C35.9559 8.82667 36.3613 7.77067 36.3613 6.32C36.3613 4.848 35.8813 3.792 34.9213 3.152C33.9826 2.49067 32.8093 2.16 31.4013 2.16C30.8253 2.16 30.3773 2.20267 30.0573 2.288L29.4813 2.384V10.448H31.8813ZM31.8813 20.72C33.6519 20.72 34.9959 20.336 35.9133 19.568C36.8519 18.8 37.3213 17.712 37.3213 16.304C37.3213 13.36 35.5079 11.888 31.8813 11.888H29.4813V20.4C29.7159 20.4853 29.9293 20.5387 30.1213 20.56C30.5906 20.6667 31.1239 20.72 31.7213 20.72H31.8813Z" fill="url(#paint0_linear_43_3647)"/>
<defs>
<linearGradient id="paint0_linear_43_3647" x1="21" y1="-2.5" x2="21" y2="29" gradientUnits="userSpaceOnUse">
<stop stop-color="#FF8585"/>
<stop offset="1" stop-color="#E57CFF"/>
</linearGradient>
</defs>
</svg>
